<svg width="35" height="35" viewBox="0 0 35 35" fill="none" xmlns="http://www.w3.org/2000/svg">
<rect width="35" height="35" rx="17.5" fill="#393B41"/>
<path d="M29.1666 13.01V23.2436C29.1666 24.1957 28.7825 25.1087 28.0987 25.7819C27.415 26.4552 26.4877 26.8334 25.5207 26.8334H9.47908C8.51215 26.8334 7.58482 26.4552 6.90109 25.7819C6.21737 25.1087 5.83325 24.1957 5.83325 23.2436V13.01L17.1295 19.5548C17.2417 19.62 17.3696 19.6543 17.4999 19.6543C17.6302 19.6543 17.7581 19.62 17.8703 19.5548L29.1666 13.01ZM25.5207 8.16669C26.4178 8.16655 27.2835 8.49207 27.9521 9.08098C28.6207 9.66989 29.0453 10.4808 29.1447 11.3587L17.4999 18.1031L5.85513 11.3587C5.95452 10.4808 6.37914 9.66989 7.04774 9.08098C7.71635 8.49207 8.582 8.16655 9.47908 8.16669H25.5207Z" fill="#BCC2CB"/>
</svg>
