<svg width="28" height="28" viewBox="0 0 28 28" fill="none" xmlns="http://www.w3.org/2000/svg">
<path d="M10.4999 25.6667C11.1442 25.6667 11.6666 25.1443 11.6666 24.5C11.6666 23.8556 11.1442 23.3333 10.4999 23.3333C9.85559 23.3333 9.33325 23.8556 9.33325 24.5C9.33325 25.1443 9.85559 25.6667 10.4999 25.6667Z" stroke="#E610E3" stroke-width="2" stroke-linecap="round" stroke-linejoin="round"/>
<path d="M23.3334 25.6667C23.9777 25.6667 24.5001 25.1443 24.5001 24.5C24.5001 23.8556 23.9777 23.3333 23.3334 23.3333C22.6891 23.3333 22.1667 23.8556 22.1667 24.5C22.1667 25.1443 22.6891 25.6667 23.3334 25.6667Z" stroke="#E610E3" stroke-width="2" stroke-linecap="round" stroke-linejoin="round"/>
<path d="M1.16675 1.16669H5.83341L8.96008 16.7884C9.06677 17.3255 9.35897 17.808 9.78555 18.1514C10.2121 18.4948 10.7459 18.6772 11.2934 18.6667H22.6334C23.1809 18.6772 23.7147 18.4948 24.1413 18.1514C24.5679 17.808 24.8601 17.3255 24.9667 16.7884L25.9001 11.8942L26.8334 7.00002H7.00008M5.83341 1.16669L7.00095 7.00002M7.00095 7.00002L8.96008 16.7884L9.78555 18.1514M7.00095 7.00002H26.8334L25.9001 11.8942M7.00095 7.00002H7.00008M11.2934 18.6667H22.6334C23.1809 18.6772 23.7147 18.4948 24.1413 18.1514" stroke="#E610E3" stroke-linecap="round" stroke-linejoin="round"/>
<path d="M9.78547 18.1513C9.35889 17.808 9.06669 17.3255 8.96 16.7883L7 7H26.8333L25.9 11.8942L24.9667 16.7883C24.86 17.3255 24.5678 17.808 24.1412 18.1513C23.7146 18.4947 23.1809 18.6772 22.6333 18.6667H11.2933C10.7458 18.6772 10.212 18.4947 9.78547 18.1513Z" fill="#E610E3"/>
<path d="M8.96 16.7883C9.06669 17.3255 9.35889 17.808 9.78547 18.1513M8.96 16.7883L7 7H26.8333L25.9 11.8942L24.9667 16.7883C24.86 17.3255 24.5678 17.808 24.1412 18.1513C23.7146 18.4947 23.1809 18.6772 22.6333 18.6667H11.2933C10.7458 18.6772 10.212 18.4947 9.78547 18.1513M8.96 16.7883L9.78547 18.1513" stroke="#E610E3" stroke-linecap="round" stroke-linejoin="round"/>
</svg>
