<svg width="27" height="27" viewBox="0 0 27 27" fill="none" xmlns="http://www.w3.org/2000/svg">
<path fill-rule="evenodd" clip-rule="evenodd" d="M22.5471 0.142295C21.6096 0.490571 20.7824 1.37884 20.5333 2.3044C20.4269 2.6996 20.3473 2.79313 19.9759 2.95901C19.4245 3.20517 18.7529 3.8351 18.5074 4.33633C18.4026 4.55029 18.2863 4.9652 18.2489 5.25829C18.1907 5.71545 18.2116 5.82307 18.396 6.01511C18.6022 6.22992 18.705 6.23903 20.9307 6.23903C23.6384 6.23903 23.6534 6.23448 23.6306 5.42289C23.6031 4.45348 22.8835 3.37825 22.0067 2.99661C21.605 2.82184 21.5947 2.76644 21.863 2.2186C22.6046 0.704642 24.8182 0.861409 25.5371 2.47875C25.7108 2.8695 25.7257 3.24638 25.7277 7.32474L25.7299 11.747H13.0333C0.862106 11.747 0.329608 11.7551 0.168312 11.9408C0.0297978 12.1001 0 12.3789 0 13.5132C0 15.0275 0.0790203 15.2425 0.635825 15.2425C0.78095 15.2425 1.03347 15.3598 1.1969 15.503L1.49407 15.7634L1.55509 17.9657C1.62272 20.4109 1.69502 20.7934 2.34437 22.1385C2.88643 23.2613 3.69037 24.0763 4.84669 24.675C5.34135 24.9311 5.7689 25.1578 5.79676 25.1788C5.92613 25.2758 5.1584 25.8348 4.89571 25.8348C4.39809 25.8348 4.13418 26.3232 4.37663 26.7951C4.45382 26.9452 4.59061 27 4.88838 27C5.67828 27 6.43472 26.4933 6.82525 25.7024L7.02143 25.3052H13.4662H19.911L19.9744 25.5681C20.064 25.9399 20.6078 26.5523 21.0635 26.7944C21.5327 27.0436 22.1972 27.0629 22.4175 26.8336C22.7774 26.4586 22.4763 25.8348 21.9352 25.8348C21.6121 25.8348 20.9484 25.263 21.1026 25.1174C21.1586 25.0647 21.3645 24.9583 21.5603 24.8811C22.1168 24.6618 23.2274 23.8663 23.6381 23.3927C24.2237 22.7176 24.6876 21.8934 24.9568 21.0501C25.1736 20.3708 25.2137 19.9966 25.2781 18.053L25.3516 15.8321L25.6347 15.5373C25.7913 15.3743 26.0298 15.2425 26.1685 15.2425C26.3065 15.2425 26.5176 15.1592 26.6377 15.0571L26.8561 14.8718L26.8269 8.6223L26.7978 2.37283L26.5237 1.83177C26.1757 1.14475 25.3586 0.375962 24.7451 0.158184C24.1699 -0.0459304 23.0751 -0.0538746 22.5471 0.142295ZM21.4907 4.1338C21.8207 4.3108 22.1705 4.66776 22.1705 4.8275C22.1705 4.93639 21.8958 4.96795 20.9501 4.96795C19.5685 4.96795 19.478 4.90228 20.0892 4.34343C20.4785 3.98731 21.0565 3.90088 21.4907 4.1338ZM19.0953 6.77638C18.7758 6.97022 18.6801 7.28365 18.8553 7.56212C19.0941 7.94175 19.3977 7.99693 19.6875 7.71348C19.9974 7.41033 19.9965 7.2488 19.6834 6.92277C19.4069 6.63465 19.3516 6.62088 19.0953 6.77638ZM20.6079 6.8823C20.2747 7.15527 20.268 7.40281 20.5855 7.71348C20.8752 7.99693 21.1789 7.94175 21.4177 7.56212C21.597 7.27708 21.492 6.9573 21.1578 6.77108C20.905 6.6301 20.9191 6.62724 20.6079 6.8823ZM22.3006 6.77076C21.8586 6.95602 21.9128 7.72842 22.3787 7.88243C22.944 8.06928 23.3478 7.18365 22.8597 6.82765C22.6044 6.64133 22.6085 6.64175 22.3006 6.77076ZM18.4076 8.56934C18.0794 8.91116 18.1499 9.27151 18.5924 9.51428C19.1534 9.8222 19.6203 8.90417 19.0968 8.52242C18.7981 8.30443 18.6524 8.31439 18.4076 8.56934ZM20.5472 8.58936C20.4332 8.71679 20.3399 8.88584 20.3399 8.96486C20.3399 9.13646 20.7923 9.62858 20.9501 9.62858C21.0111 9.62858 21.1733 9.51153 21.3106 9.36853C21.4479 9.22554 21.5603 9.05659 21.5603 8.99304C21.5603 8.82112 21.0843 8.3575 20.9078 8.3575C20.8236 8.3575 20.6612 8.46183 20.5472 8.58936ZM22.7435 8.57708C22.5962 8.69772 22.4756 8.86678 22.4756 8.95257C22.4756 9.1336 22.9223 9.62858 23.0858 9.62858C23.2298 9.62858 23.696 9.14302 23.696 8.99304C23.696 8.85332 23.2341 8.3575 23.1041 8.3575C23.0531 8.3575 22.8909 8.45632 22.7435 8.57708ZM17.9218 10.2172C17.5008 10.5242 17.722 11.2439 18.2372 11.2439C18.6053 11.2439 18.8144 11.04 18.8144 10.6808C18.8144 10.3942 18.5101 10.0523 18.255 10.0523C18.1961 10.0523 18.0461 10.1265 17.9218 10.2172ZM20.6107 10.1854C20.3215 10.4057 20.3487 10.8891 20.6646 11.1389C20.9244 11.3445 20.9517 11.3465 21.1985 11.1781C21.5363 10.9476 21.5539 10.4516 21.2325 10.2172C20.9588 10.0174 20.8392 10.0114 20.6107 10.1854ZM23.3118 10.2172C22.7917 10.5965 23.2281 11.4631 23.8209 11.2283C24.2421 11.0616 24.3275 10.6041 24.0011 10.2641C23.7563 10.0092 23.6105 9.9992 23.3118 10.2172ZM14.508 13.0181H25.7299V13.4948V13.9714H13.4243H1.11869V13.4257V12.88L2.2024 12.9491C2.79836 12.9871 8.33589 13.0181 14.508 13.0181ZM24.2515 15.4808C24.2084 15.612 24.1437 16.744 24.1078 17.9965C24.0512 19.9696 24.0137 20.3487 23.8269 20.8333C23.199 22.4629 22.0366 23.5578 20.4889 23.9777C19.5959 24.2199 7.25269 24.2199 6.35977 23.9777C4.8116 23.5577 3.64725 22.4607 3.02251 20.8333C2.83721 20.3508 2.79836 19.961 2.73968 17.9965C2.70225 16.744 2.63727 15.612 2.59517 15.4808L2.51879 15.2425H13.4243H24.3299L24.2515 15.4808Z" fill="#2B2C31"/>
</svg>
