<svg width="35" height="24" viewBox="0 0 35 24" fill="none" xmlns="http://www.w3.org/2000/svg">
<path fill-rule="evenodd" clip-rule="evenodd" d="M15.9434 0.562102C14.6465 1.30543 9.9944 4.27363 9.18359 4.87513C8.72289 5.21683 8.54389 5.4225 8.54389 5.60986C8.54389 5.898 8.98367 6.39237 9.45938 6.63921C9.62893 6.72715 9.76711 6.86051 9.76633 6.93572C9.76444 7.13336 8.93327 7.67838 5.98508 9.41558C0.877037 12.4254 -0.141479 13.1287 0.014831 13.5374C0.0513218 13.6329 0.570982 14.0285 1.16963 14.4166C3.98309 16.2408 13.266 21.8912 15.8566 23.3563L16.9947 24L18.3042 23.2473C21.5596 21.3759 30.016 16.2225 32.6022 14.5342C33.3823 14.0249 34.0207 13.5363 34.0207 13.4485C34.0207 13.0576 33.1004 12.4334 28.5551 9.74144C23.9664 7.02366 23.8982 6.97232 24.4808 6.67225C24.9278 6.44203 25.4543 5.86397 25.4543 5.60328C25.4543 5.29506 24.9023 4.86452 22.7286 3.47684C20.8995 2.30923 17.9873 0.544136 17.3622 0.224305L16.924 0L15.9434 0.562102ZM18.4327 2.45553C21.1135 4.10635 23.2292 5.51289 23.2292 5.64435C23.2292 5.71934 22.9413 5.97645 22.5895 6.21582C21.585 6.89912 17.0867 9.69479 16.9917 9.69479C16.9101 9.69479 12.4573 6.92523 11.2438 6.11963C10.9236 5.90704 10.6608 5.70148 10.6597 5.66265C10.6548 5.49169 16.6433 1.67582 16.9308 1.66667C17.0462 1.66298 17.7221 2.01797 18.4327 2.45553ZM12.8271 8.80527C16.8579 11.2912 16.8864 11.3066 17.2077 11.1849C17.3722 11.1226 18.1311 10.677 18.8939 10.1946C21.9104 8.28725 22.3816 8.02087 22.7385 8.02087C23.0999 8.02087 23.411 8.26258 23.294 8.45241C23.0658 8.82279 17.3549 12.3731 16.9873 12.3731C16.62 12.3731 10.9337 8.82491 10.7043 8.45263C10.6181 8.31269 11.0294 7.90771 11.2541 7.91128C11.3237 7.9124 12.0316 8.3147 12.8271 8.80527ZM27.3775 10.6852C30.1696 12.3227 31.5731 13.2225 31.5731 13.3752C31.5731 13.5724 30.3793 14.382 27.6503 16.0355C26.0743 16.9904 24.9563 17.6016 24.8721 17.5543C23.7187 16.9065 18.5566 13.5341 18.5566 13.4285C18.5566 13.2154 24.7386 9.22899 24.9601 9.2993C25.0248 9.31972 26.1126 9.94342 27.3775 10.6852ZM10.5136 10.1544C12.9457 11.6268 15.4415 13.2852 15.4415 13.4289C15.4415 13.5333 10.4671 16.7814 9.12407 17.5538C8.8782 17.6952 2.60812 13.8066 2.46072 13.4213C2.42545 13.3291 2.48997 13.1851 2.60579 13.098C3.30023 12.5752 8.9009 9.36369 9.12296 9.36101C9.16601 9.36045 9.7918 9.71755 10.5136 10.1544ZM18.7104 15.3272C22.2763 17.5685 23.2848 18.2457 23.2848 18.3992C23.2848 18.4867 23.0095 18.7518 22.6729 18.9884C22.0471 19.4284 17.3651 22.2568 17.0826 22.3655C16.8553 22.453 10.5464 18.6351 10.5464 18.41C10.5464 18.3223 12.1015 17.2966 15.9422 14.8508C16.4317 14.5391 16.8764 14.2809 16.9303 14.2771C16.9843 14.2733 17.7853 14.7459 18.7104 15.3272Z" fill="#2B2C31"/>
</svg>
