<svg width="29" height="26" viewBox="0 0 29 26" fill="none" xmlns="http://www.w3.org/2000/svg">
<path fill-rule="evenodd" clip-rule="evenodd" d="M17.2653 2.22832V4.45664H17.9089H18.5524V5.64965V6.84266H13.904H9.25565V9.07783V11.313H9.74855H10.2415V12.8146V14.3161H5.12073H0V16.5444V18.7727H0.513442H1.02688V22.0364V25.3H14.8556H28.6843V12.65V0H22.9748H17.2653V2.22832ZM27.452 2.22832V3.22249H22.9748H18.4976V2.22832V1.23415H22.9748H27.452V2.22832ZM21.0717 7.26775V10.0789H20.4282H19.7846V7.26775V4.45664H20.4282H21.0717V7.26775ZM27.452 14.2612V24.0659H16.1152H4.77843V21.4193V18.7727H9.38572H13.993V15.0429V11.313H18.1485H22.3039V7.88482V4.45664H24.878H27.452V14.2612ZM18.5524 9.07783V10.0789H14.5201H10.4879V9.07783V8.0768H14.5201H18.5524V9.07783ZM12.7607 14.4258V17.5386H12.1172H11.4737V14.4258V11.313H12.1172H12.7607V14.4258ZM10.2415 16.5444V17.5386H5.73686H1.23226V16.5444V15.5502H5.73686H10.2415V16.5444ZM3.54617 21.4193V24.0659H2.90266H2.25915V21.4193V18.7727H2.90266H3.54617V21.4193Z" fill="#2B2C31"/>
</svg>
