<svg width="20" height="30" viewBox="0 0 20 30" fill="none" xmlns="http://www.w3.org/2000/svg">
<path fill-rule="evenodd" clip-rule="evenodd" d="M4.13196 0.18503C4.04195 0.286813 3.95706 0.416732 3.94333 0.473706C3.90501 0.632918 4.0587 0.87368 4.37264 1.14618C5.37642 2.01754 6.0912 3.30431 6.36666 4.73586C6.61148 6.0081 6.6025 7.74711 6.3432 9.27812C6.28555 9.61851 6.24398 9.69547 6.177 9.58591C5.26339 8.09135 4.44403 7.20865 3.37259 6.5646C2.76838 6.20145 2.514 6.16065 2.28102 6.38963C2.09982 6.56775 2.09978 6.65567 2.28071 7.20364C2.54128 7.99296 2.58114 8.22561 2.60449 9.09317C2.63335 10.1661 2.54934 10.8389 2.25156 11.9187C2.06456 12.5969 1.82122 13.197 1.23114 14.4351C0.192463 16.6145 -0.0418265 17.6759 0.00573816 19.9869C0.0231283 20.8299 0.0400022 21.0307 0.132749 21.4971C0.299742 22.3367 0.622094 23.2929 1.02548 24.1451C1.57438 25.3046 2.01433 25.9434 2.89202 26.8552C4.30856 28.3266 5.72653 29.1704 7.6211 29.6693C8.22947 29.8295 8.70146 29.9041 9.43792 29.9564C10.5442 30.0351 10.6489 30.0269 11.9063 29.7653C13.3428 29.4664 15.0932 28.6449 16.1943 27.753C18.2694 26.0721 19.7616 23.2796 19.9712 20.6849C20.0302 19.9541 19.9926 17.4283 19.9115 16.6768C19.4783 12.6644 18.3379 9.27832 16.4416 6.3744C15.5946 5.07737 15.2612 4.83185 14.8542 5.20567L14.6854 5.3607L14.7446 5.77446C14.8476 6.49497 14.894 7.89759 14.8471 8.87107C14.7894 10.0679 14.7545 10.1734 14.6087 9.59133C14.1792 7.87669 13.8396 6.92146 13.23 5.71322C12.1118 3.49691 10.6968 2.01874 8.74986 1.03289C7.48733 0.393644 6.38394 0.115272 4.75594 0.0254044L4.29565 0L4.13196 0.18503ZM6.73067 1.30721C9.2836 1.98663 11.1967 3.70015 12.5037 6.47784C13.2629 8.09147 13.7112 9.72323 14.0126 11.9701C14.0775 12.4538 14.1495 12.9095 14.1725 12.9827C14.2646 13.2753 14.5781 13.4068 14.8431 13.264C15.0512 13.1519 15.2192 12.661 15.4949 11.3601C15.6902 10.4387 15.7904 9.67495 15.8396 8.73279C15.8627 8.28904 15.8912 7.80644 15.9029 7.6603L15.9241 7.39463L16.1801 7.84649C16.8308 8.99494 17.5476 10.6624 17.9396 11.9394C18.3757 13.3599 18.7246 15.068 18.9156 16.7182C19.0021 17.4645 19.0383 19.6415 18.9779 20.4577C18.8887 21.6643 18.5874 22.7335 18.0148 23.8761C17.5493 24.805 17.0388 25.5153 16.288 26.2791C15.2956 27.2885 14.1709 27.9991 12.8282 28.4652C12.3339 28.6367 11.5981 28.8204 11.2228 28.866L10.996 28.8936L10.1972 28.9366C9.25656 28.9252 8.69567 28.8704 8.09476 28.7312C5.25759 28.0741 2.90746 26.0838 1.74439 23.3532C1.41426 22.5782 1.11728 21.5237 1.02866 20.812C0.978075 20.406 0.977837 18.7007 1.02826 18.2284C1.07948 17.7486 1.27093 16.944 1.47119 16.3665C1.55802 16.1162 1.85227 15.4489 2.12507 14.8836C2.87304 13.3336 3.18245 12.4806 3.42567 11.2981C3.57246 10.5844 3.61172 10.0921 3.60497 9.05006C3.60088 8.41693 3.61311 8.09056 3.64202 8.06044C3.6731 8.02804 3.79773 8.13037 4.08721 8.42583C4.98395 9.34121 5.49124 10.2991 5.71275 11.4951C5.80403 11.988 5.82316 12.0346 5.99758 12.1875C6.17744 12.3452 6.39736 12.3151 6.56911 12.1093C6.82929 11.7976 7.23331 10.1848 7.44719 8.60415C7.54657 7.86941 7.54621 5.80983 7.44652 5.13314C7.25499 3.83263 6.81643 2.63722 6.17156 1.65762C6.0143 1.41868 5.87093 1.1974 5.85298 1.16587C5.80847 1.08767 6.05495 1.12735 6.73067 1.30721Z" fill="#2B2C31"/>
<path d="M6.73067 1.30721C9.2836 1.98663 11.1967 3.70015 12.5037 6.47784C13.2629 8.09147 13.7112 9.72323 14.0126 11.9701C14.0775 12.4538 14.1495 12.9095 14.1725 12.9827C14.2646 13.2753 14.5781 13.4068 14.8431 13.264C15.0512 13.1519 15.2192 12.661 15.4949 11.3601C15.6902 10.4387 15.7904 9.67495 15.8396 8.73279C15.8627 8.28904 15.8912 7.80644 15.9029 7.6603L15.9241 7.39463L16.1801 7.84649C16.8308 8.99494 17.5476 10.6624 17.9396 11.9394C18.3757 13.3599 18.7246 15.068 18.9156 16.7182C19.0021 17.4645 19.0383 19.6415 18.9779 20.4577C18.8887 21.6643 18.5874 22.7335 18.0148 23.8761C17.5493 24.805 17.0388 25.5153 16.288 26.2791C15.2956 27.2885 14.1709 27.9991 12.8282 28.4652C12.3339 28.6367 11.5981 28.8204 11.2228 28.866L10.996 28.8936L10.1972 28.9366C9.25656 28.9252 8.69567 28.8704 8.09476 28.7312C5.25759 28.0741 2.90746 26.0838 1.74439 23.3532C1.41426 22.5782 1.11728 21.5237 1.02866 20.812C0.978075 20.406 0.977837 18.7007 1.02826 18.2284C1.07948 17.7486 1.27093 16.944 1.47119 16.3665C1.55802 16.1162 1.85227 15.4489 2.12507 14.8836C2.87304 13.3336 3.18245 12.4806 3.42567 11.2981C3.57246 10.5844 3.61172 10.0921 3.60497 9.05006C3.60088 8.41693 3.61311 8.09056 3.64202 8.06044C3.6731 8.02804 3.79773 8.13037 4.08721 8.42583C4.98395 9.34121 5.49124 10.2991 5.71275 11.4951C5.80403 11.988 5.82316 12.0346 5.99758 12.1875C6.17744 12.3452 6.39736 12.3151 6.56911 12.1093C6.82929 11.7976 7.23331 10.1848 7.44719 8.60415C7.54657 7.86941 7.54621 5.80983 7.44652 5.13314C7.25499 3.83263 6.81643 2.63722 6.17156 1.65762C6.0143 1.41868 5.87093 1.1974 5.85298 1.16587C5.80847 1.08767 6.05495 1.12735 6.73067 1.30721Z" fill="white"/>
<path d="M6.99998 21.5L7.49027 21.5981L6.99998 21.5ZM10.0026 14.5L10.4958 14.4178C10.4517 14.1533 10.2068 13.9706 9.94067 14.0038C9.67456 14.0371 9.48204 14.2743 9.50431 14.5415L10.0026 14.5ZM10.5026 20.5L10.0043 20.5415C10.024 20.7782 10.2075 20.9683 10.4433 20.9965C10.6791 21.0246 10.9021 20.8831 10.9771 20.6577L10.5026 20.5ZM11.5 17.5L11.9681 17.3244C11.8937 17.126 11.7024 16.9961 11.4905 17.0001C11.2787 17.0041 11.0923 17.1412 11.0255 17.3423L11.5 17.5ZM13 21.5L12.5318 21.6756C12.5345 21.6828 12.5374 21.6899 12.5404 21.697L13 21.5ZM10.0026 25C9.40388 25 8.65929 24.6924 8.12107 24.101C7.59814 23.5263 7.27263 22.6863 7.49027 21.5981L6.50969 21.4019C6.22733 22.8137 6.65311 23.9737 7.38148 24.774C8.09457 25.5576 9.10128 26 10.0026 26V25ZM10.9771 20.6577L11.9744 17.6577L11.0255 17.3423L10.0281 20.3423L10.9771 20.6577ZM11.0318 17.6756L12.5318 21.6756L13.4681 21.3244L11.9681 17.3244L11.0318 17.6756ZM12.5404 21.697C12.7528 22.1926 12.8731 23.0468 12.5784 23.7425C12.4367 24.0769 12.1977 24.3809 11.8089 24.6067C11.4149 24.8355 10.8387 25 10.0026 25V26C10.9665 26 11.7274 25.8104 12.3111 25.4714C12.8999 25.1295 13.279 24.6523 13.4992 24.1325C13.9281 23.1199 13.7471 21.974 13.4595 21.303L12.5404 21.697ZM11.0009 20.4585L10.5087 14.5523L9.51212 14.6353L10.0043 20.5415L11.0009 20.4585ZM9.51042 14.5985C9.51087 14.6473 9.49601 14.7438 9.43838 14.9047C9.38264 15.0603 9.29778 15.247 9.18521 15.4675C8.95722 15.9142 8.64969 16.4359 8.3029 17.0549C7.62423 18.2662 6.83333 19.7838 6.50969 21.4019L7.49027 21.5981C7.78034 20.1477 8.49968 18.7496 9.17531 17.5436C9.50566 16.954 9.83629 16.3916 10.0759 15.9221C10.1972 15.6845 10.3035 15.455 10.3798 15.2419C10.4543 15.0339 10.5124 14.809 10.5104 14.5891L9.51042 14.5985ZM9.50431 14.5415L9.51212 14.6353L10.5087 14.5523L10.5009 14.4585L9.50431 14.5415ZM10.5104 14.5891C10.5099 14.5333 10.5055 14.4759 10.4958 14.4178L9.50938 14.5822C9.50958 14.5834 9.51032 14.5885 9.51042 14.5985L10.5104 14.5891Z" fill="#34363D"/>
</svg>
