<svg width="26" height="28" viewBox="0 0 26 28" fill="none" xmlns="http://www.w3.org/2000/svg">
<path d="M24.6274 18.2402V22.3718C24.6274 24.1622 20.3112 26.5034 14.987 26.5034C9.6628 26.5034 5.34668 24.1622 5.34668 22.3718V18.9288" stroke="#2B2C31" stroke-linecap="round" stroke-linejoin="round"/>
<path d="M5.75153 19.287C6.9428 20.8681 10.6268 22.3513 14.987 22.3513C20.3112 22.3513 24.6273 20.1395 24.6273 18.239C24.6273 17.1717 23.268 16.0024 21.1348 15.1816" stroke="#2B2C31" stroke-linecap="round" stroke-linejoin="round"/>
<path d="M20.4958 12.8205V15.487C20.4958 17.2774 16.1797 19.6186 10.8554 19.6186C5.53121 19.6186 1.21509 17.2774 1.21509 15.487V11.3555" stroke="#2B2C31" stroke-linecap="round" stroke-linejoin="round"/>
<path fill-rule="evenodd" clip-rule="evenodd" d="M18.8497 12.8836C18.4721 13.1542 18.008 13.419 17.4658 13.6647C15.7922 14.4231 13.4534 14.9636 10.8554 14.9636C8.2575 14.9636 5.91869 14.4231 4.24504 13.6647C3.40686 13.2849 2.75524 12.8594 2.32134 12.4373C1.88012 12.008 1.71509 11.6346 1.71509 11.3513C1.71509 11.0672 1.8805 10.6925 2.32195 10.2616C2.75602 9.83783 3.40777 9.41039 4.2459 9.02871C4.48823 8.91835 4.74451 8.81256 5.0135 8.71234V7.65039C4.59447 7.79417 4.19929 7.95112 3.83145 8.11863C2.92502 8.53142 2.16498 9.01732 1.6234 9.54602C1.08919 10.0675 0.715088 10.6844 0.715088 11.3513C0.715088 12.0182 1.08957 12.634 1.62401 13.154C2.16576 13.6811 2.92593 14.1649 3.83231 14.5756C5.64778 15.3982 8.12913 15.9636 10.8554 15.9636C13.5817 15.9636 16.0631 15.3982 17.8786 14.5756C18.7849 14.1649 19.5451 13.6811 20.0869 13.154C20.3249 12.9224 20.5311 12.6719 20.6867 12.4063C20.0571 12.5955 19.4447 12.7537 18.8497 12.8836Z" fill="#2B2C31"/>
<path d="M5.3467 5.13281V9.26439C5.3467 11.0547 9.66281 13.396 14.987 13.396C20.3113 13.396 24.6274 11.0547 24.6274 9.26439V5.13281" stroke="#2B2C31" stroke-linecap="round" stroke-linejoin="round"/>
<path fill-rule="evenodd" clip-rule="evenodd" d="M14.987 9.24112C9.66281 9.24112 5.3467 7.02935 5.3467 5.12882C5.3467 3.22692 9.66281 1 14.987 1C20.3113 1 24.6274 3.22692 24.6274 5.12882C24.6274 7.02935 20.3113 9.24112 14.987 9.24112Z" stroke="#2B2C31" stroke-linecap="round" stroke-linejoin="round"/>
</svg>
