<svg width="27" height="27" viewBox="0 0 27 27" fill="none" xmlns="http://www.w3.org/2000/svg">
<path fill-rule="evenodd" clip-rule="evenodd" d="M12.6474 0.171741C12.4258 0.270443 11.707 0.818084 11.0499 1.38874C9.85886 2.42316 9.85372 2.42629 9.33762 2.42551C9.05298 2.42502 8.29878 2.35772 7.66172 2.27599C6.31971 2.10355 5.79424 2.17621 5.15889 2.62184C4.61953 3.00026 4.39472 3.51991 4.08621 5.10236C3.94047 5.85004 3.77911 6.53774 3.72774 6.63069C3.67638 6.72363 3.03347 7.11376 2.29901 7.49774C0.801082 8.28073 0.386009 8.61292 0.146493 9.22015C-0.129685 9.92053 -0.0130492 10.4967 0.693914 11.9253C1.05661 12.6581 1.31627 13.3131 1.31627 13.4951C1.31627 13.6753 1.03949 14.3811 0.661986 15.1635C-0.0652229 16.6708 -0.148318 17.1548 0.194739 17.886C0.45037 18.4309 0.915602 18.7934 2.19396 19.444C3.8611 20.2925 3.72029 20.1086 4.0981 21.9323C4.45334 23.6466 4.66939 24.1138 5.27362 24.4734C5.89668 24.8444 6.27599 24.8832 7.66817 24.7188C9.8784 24.4579 9.67232 24.404 11.0424 25.602C12.3307 26.7285 12.8087 27 13.5036 27C14.1984 27 14.6765 26.7285 15.9647 25.602C17.3321 24.4063 17.1805 24.4472 19.2511 24.7149C20.5621 24.8844 21.0283 24.843 21.639 24.5025C22.3368 24.1135 22.547 23.6994 22.878 22.0614C23.0387 21.2664 23.2113 20.5253 23.2616 20.4143C23.3153 20.2962 23.8892 19.9332 24.648 19.5379C26.1483 18.756 26.6205 18.3809 26.856 17.7838C27.1352 17.0759 27.0208 16.5052 26.3113 15.0663C25.9567 14.3471 25.6908 13.6763 25.6908 13.5002C25.6908 13.3257 25.9742 12.6046 26.3455 11.8344C27.0277 10.4193 27.1063 10.066 26.8993 9.3447C26.7203 8.7206 26.2069 8.27458 24.8861 7.59547C24.2079 7.24679 23.5516 6.87071 23.4275 6.75982C23.248 6.59918 23.146 6.27177 22.9271 5.15191C22.7758 4.37838 22.593 3.60876 22.5207 3.4414C22.2999 2.92955 21.7161 2.44696 21.1121 2.27696C20.6135 2.13652 20.4544 2.13632 19.3583 2.27443C17.1758 2.54937 17.3321 2.59014 15.9576 1.38826C15.3047 0.817304 14.5874 0.269663 14.3636 0.171254C13.8441 -0.0572633 13.1611 -0.0570682 12.6474 0.171741ZM14.2086 1.4854C14.3471 1.59756 14.755 1.95989 15.1151 2.29062C16.1125 3.20654 16.67 3.57648 17.1602 3.64768C17.4002 3.6825 18.1089 3.64153 18.743 3.55619C19.3745 3.47114 20.127 3.4016 20.4152 3.4016C21.1683 3.4016 21.3797 3.67245 21.6079 4.92983C22.0558 7.39807 22.116 7.48487 24.1287 8.56347C25.3742 9.23098 25.5538 9.35933 25.6752 9.66821C25.8052 9.99885 25.7931 10.0602 25.4495 10.806C25.2499 11.2395 24.9226 11.9503 24.7222 12.3853C24.2363 13.4404 24.2692 13.7257 25.0649 15.3688C25.4033 16.0679 25.709 16.7506 25.7441 16.8862C25.8752 17.392 25.5819 17.6757 24.1568 18.4212C23.4217 18.8058 22.7139 19.2155 22.5839 19.3318C22.1782 19.6944 21.9833 20.2013 21.6806 21.6798C21.3201 23.441 21.2149 23.5907 20.3381 23.5907C20.017 23.5907 19.2697 23.5209 18.6772 23.4357C16.9145 23.1821 16.7542 23.2429 14.9843 24.8351C13.9774 25.741 13.6362 25.9151 13.19 25.7507C13.0537 25.7006 12.536 25.292 12.0395 24.8428C10.2993 23.2685 10.1365 23.2071 8.31732 23.4381C7.65668 23.522 6.88032 23.5907 6.59206 23.5907C5.83886 23.5907 5.62745 23.3199 5.39921 22.0625C4.9507 19.5913 4.85733 19.4576 2.85036 18.4158C1.41578 17.6711 1.13215 17.3955 1.2648 16.8748C1.30096 16.7331 1.60645 16.052 1.94377 15.361C2.32862 14.5727 2.57388 13.9345 2.60248 13.6469C2.65133 13.1541 2.57599 12.9427 1.6688 11.0279C1.20941 10.0583 1.19742 10.0103 1.33088 9.67075C1.45325 9.35953 1.62901 9.23293 2.84653 8.57898C4.89329 7.4797 4.87909 7.49843 5.3277 5.3065C5.75033 3.24194 5.78337 3.22224 8.26413 3.55619C10.1109 3.8048 10.2765 3.74277 12.0577 2.13545C12.587 1.65774 13.1175 1.24957 13.2366 1.2284C13.5753 1.16822 13.934 1.26312 14.2086 1.4854ZM9.02146 6.84964C8.45409 7.10606 7.84926 7.70256 7.59998 8.25166C7.38 8.7361 7.37658 9.77404 7.59323 10.2618C8.36355 11.9956 10.5905 12.5194 12.0182 11.3025C12.882 10.5663 13.2327 9.3687 12.8664 8.40654C12.3058 6.93421 10.475 6.19287 9.02146 6.84964ZM16.0259 10.2522C7.76999 18.1555 7.46028 18.4619 7.46028 18.7228C7.46028 19.0308 7.7432 19.2993 8.06763 19.2993C8.3152 19.2993 8.87501 18.7788 16.2986 11.6447C18.9639 9.08332 19.5468 8.47589 19.5468 8.25986C19.5468 7.97106 19.2293 7.693 18.8993 7.693C18.773 7.693 17.7157 8.63477 16.0259 10.2522ZM10.8172 7.92357C11.2694 8.10654 11.6581 8.58395 11.7408 9.05776C11.8327 9.58424 11.4809 10.2926 10.9934 10.563C9.95958 11.1361 8.66833 10.4141 8.66934 9.26346C8.67024 8.19861 9.78231 7.50486 10.8172 7.92357ZM16.0036 15.1383C14.8787 15.4451 14.022 16.5219 14.0121 17.6412C14.0005 18.961 14.8206 19.9782 16.1708 20.3188C17.4454 20.6402 18.8572 19.9519 19.4071 18.7406C19.6488 18.2085 19.6343 17.2137 19.3767 16.6572C18.8126 15.4382 17.3381 14.7742 16.0036 15.1383ZM17.5825 16.4634C18.3202 16.865 18.5733 17.8569 18.1095 18.529C17.336 19.6502 15.4753 19.2494 15.2515 17.9135C15.2082 17.6554 15.2522 17.435 15.4101 17.1192C15.8352 16.269 16.7295 15.999 17.5825 16.4634Z" fill="#2B2C31"/>
<path fill-rule="evenodd" clip-rule="evenodd" d="M14.2086 1.4854C14.3471 1.59756 14.755 1.95989 15.1151 2.29062C16.1125 3.20654 16.67 3.57648 17.1602 3.64768C17.4002 3.6825 18.1089 3.64153 18.743 3.55619C19.3745 3.47114 20.127 3.4016 20.4152 3.4016C21.1683 3.4016 21.3797 3.67245 21.6079 4.92983C22.0558 7.39807 22.116 7.48487 24.1287 8.56347C25.3742 9.23098 25.5538 9.35933 25.6752 9.66821C25.8052 9.99885 25.7931 10.0602 25.4495 10.806L24.7222 12.3853C24.2363 13.4404 24.2692 13.7257 25.0649 15.3688C25.4033 16.0679 25.709 16.7506 25.7441 16.8862C25.8752 17.392 25.5819 17.6757 24.1568 18.4212C23.4217 18.8058 22.7139 19.2155 22.5839 19.3318C22.1782 19.6944 21.9833 20.2013 21.6806 21.6798C21.3201 23.441 21.2149 23.5907 20.3381 23.5907C20.017 23.5907 19.2697 23.5209 18.6772 23.4357C16.9145 23.1821 16.7542 23.2429 14.9843 24.8351C13.9774 25.741 13.6362 25.9151 13.19 25.7507C13.0537 25.7006 12.536 25.292 12.0395 24.8428C10.2993 23.2685 10.1365 23.2071 8.31732 23.4381C7.65668 23.522 6.88032 23.5907 6.59206 23.5907C5.83886 23.5907 5.62745 23.3199 5.39921 22.0625C4.9507 19.5913 4.85733 19.4576 2.85036 18.4158C1.41578 17.6711 1.13215 17.3955 1.2648 16.8748C1.30096 16.7331 1.60645 16.052 1.94377 15.361C2.32862 14.5727 2.57388 13.9345 2.60248 13.6469C2.65133 13.1541 2.57599 12.9427 1.6688 11.0279C1.20941 10.0583 1.19742 10.0103 1.33088 9.67075C1.45325 9.35953 1.62901 9.23293 2.84653 8.57898C4.89329 7.4797 4.87909 7.49843 5.3277 5.3065C5.75033 3.24194 5.78337 3.22224 8.26413 3.55619C10.1109 3.8048 10.2765 3.74277 12.0577 2.13545C12.587 1.65774 13.1175 1.24957 13.2366 1.2284C13.5753 1.16822 13.934 1.26312 14.2086 1.4854ZM7.59998 8.25166C7.84926 7.70256 8.45409 7.10606 9.02146 6.84964C10.475 6.19287 12.3058 6.93421 12.8664 8.40654C13.2327 9.3687 12.882 10.5663 12.0182 11.3025C10.5905 12.5194 8.36355 11.9956 7.59323 10.2618C7.37658 9.77404 7.38 8.7361 7.59998 8.25166ZM7.46028 18.7228C7.46028 18.4619 7.76999 18.1555 16.0259 10.2522C17.7157 8.63477 18.773 7.693 18.8993 7.693C19.2293 7.693 19.5468 7.97106 19.5468 8.25986C19.5468 8.47589 18.9639 9.08332 16.2986 11.6447C8.87501 18.7788 8.3152 19.2993 8.06763 19.2993C7.7432 19.2993 7.46028 19.0308 7.46028 18.7228ZM14.0121 17.6412C14.022 16.5219 14.8787 15.4451 16.0036 15.1383C17.3381 14.7742 18.8126 15.4382 19.3767 16.6572C19.6343 17.2137 19.6488 18.2085 19.4071 18.7406C18.8572 19.9519 17.4454 20.6402 16.1708 20.3188C14.8206 19.9782 14.0005 18.961 14.0121 17.6412Z" fill="white"/>
</svg>
