<svg width="21" height="12" viewBox="0 0 21 12" fill="none" xmlns="http://www.w3.org/2000/svg">
<path d="M20.0185 3.16778C20.6267 2.60527 20.6637 1.65625 20.1012 1.04807C19.5387 0.439901 18.5897 0.402882 17.9815 0.965392L20.0185 3.16778ZM10.3767 10.0424L9.33979 11.1263C9.91269 11.6744 10.8132 11.682 11.3952 11.1436L10.3767 10.0424ZM3.03691 0.944917C2.43829 0.372248 1.48878 0.393283 0.916109 0.9919C0.34344 1.59052 0.364475 2.54003 0.963091 3.1127L3.03691 0.944917ZM17.9815 0.965392L9.35819 8.94122L11.3952 11.1436L20.0185 3.16778L17.9815 0.965392ZM0.963091 3.1127L9.33979 11.1263L11.4136 8.95852L3.03691 0.944917L0.963091 3.1127Z" fill="#2B2C31"/>
</svg>
