<svg width="33" height="33" viewBox="0 0 33 33" fill="none" xmlns="http://www.w3.org/2000/svg">
<rect width="33" height="32.7925" rx="16.3962" fill="white"/>
<path d="M26.7023 21.9219C26.6759 21.8615 26.6512 21.8114 26.6283 21.7712C26.2498 21.0483 25.5264 20.1609 24.4586 19.1088L24.436 19.0847L24.4248 19.0729L24.4134 19.0607H24.4019C23.9172 18.5708 23.6103 18.2414 23.4818 18.0728C23.2467 17.7515 23.1941 17.4263 23.3226 17.0968C23.4133 16.8479 23.7545 16.3221 24.345 15.5189C24.6555 15.0932 24.9015 14.752 25.0833 14.495C26.3935 12.6477 26.9616 11.4673 26.7873 10.9533L26.7196 10.8331C26.6741 10.7608 26.5567 10.6947 26.3676 10.6343C26.1781 10.5741 25.9358 10.5642 25.6404 10.6043L22.3689 10.6283C22.3159 10.6083 22.2402 10.6102 22.1417 10.6343C22.0432 10.6585 21.9939 10.6706 21.9939 10.6706L21.9369 10.7007L21.8917 10.737C21.8539 10.761 21.8122 10.8031 21.7667 10.8634C21.7215 10.9234 21.6837 10.9939 21.6534 11.0742C21.2972 12.0459 20.8923 12.9494 20.4378 13.7846C20.1576 14.2826 19.9002 14.7142 19.6652 15.0797C19.4305 15.445 19.2336 15.7141 19.0746 15.8867C18.9155 16.0594 18.7719 16.1977 18.6428 16.3022C18.5141 16.4068 18.4158 16.451 18.3476 16.4348C18.2795 16.4187 18.2152 16.4026 18.1543 16.3866C18.0484 16.3143 17.9632 16.2159 17.899 16.0914C17.8344 15.967 17.791 15.8103 17.7683 15.6216C17.7456 15.4327 17.7323 15.2703 17.7285 15.1337C17.7249 14.9973 17.7265 14.8043 17.7342 14.5554C17.7421 14.3063 17.7456 14.1378 17.7456 14.0494C17.7456 13.7442 17.7513 13.4129 17.7625 13.0555C17.7739 12.6982 17.7832 12.415 17.791 12.2064C17.7987 11.9976 17.8023 11.7766 17.8023 11.5437C17.8023 11.3108 17.7889 11.1282 17.7625 10.9956C17.7364 10.8632 17.6964 10.7347 17.6436 10.6101C17.5905 10.4856 17.5127 10.3893 17.4107 10.321C17.3085 10.2527 17.1814 10.1985 17.0302 10.1583C16.6287 10.0619 16.1175 10.0098 15.4964 10.0017C14.0879 9.98568 13.1829 10.0821 12.7815 10.291C12.6224 10.3792 12.4785 10.4997 12.3499 10.6522C12.2135 10.829 12.1945 10.9254 12.2929 10.9413C12.7474 11.0135 13.0691 11.1862 13.2585 11.4592L13.3267 11.6039C13.3798 11.7083 13.4328 11.8931 13.4858 12.1581C13.5388 12.423 13.5729 12.7162 13.588 13.0373C13.6258 13.6236 13.6258 14.1256 13.588 14.5431C13.5501 14.9608 13.5143 15.286 13.4801 15.5189C13.4459 15.7519 13.3948 15.9406 13.3267 16.0851C13.2585 16.2297 13.2131 16.318 13.1903 16.3501C13.1676 16.3822 13.1486 16.4024 13.1336 16.4103C13.0352 16.4503 12.9328 16.4707 12.8268 16.4707C12.7207 16.4707 12.5921 16.4144 12.4406 16.3019C12.2892 16.1894 12.1321 16.0349 11.9692 15.8381C11.8064 15.6413 11.6227 15.3662 11.4182 15.0129C11.2138 14.6595 11.0017 14.2419 10.7821 13.7601L10.6004 13.4106C10.4868 13.1858 10.3316 12.8585 10.1347 12.4289C9.9377 11.9992 9.76355 11.5835 9.61215 11.1819C9.55163 11.0133 9.46071 10.8849 9.33957 10.7965L9.28271 10.7603C9.24491 10.7282 9.18424 10.6942 9.101 10.6579C9.01765 10.6216 8.93067 10.5956 8.83971 10.5796L5.72716 10.6036C5.4091 10.6036 5.19329 10.68 5.07965 10.8326L5.03418 10.9048C5.01146 10.945 5 11.0093 5 11.0977C5 11.186 5.02272 11.2945 5.0682 11.4228C5.52257 12.5553 6.0167 13.6475 6.55057 14.6996C7.08444 15.7516 7.54836 16.5991 7.94206 17.2412C8.33584 17.8838 8.73722 18.4902 9.1462 19.0603C9.55517 19.6305 9.82589 19.996 9.95835 20.1565C10.091 20.3174 10.1951 20.4376 10.2708 20.5179L10.5549 20.807C10.7366 20.9998 11.0035 21.2306 11.3557 21.4996C11.7079 21.7688 12.0979 22.0337 12.5258 22.295C12.9537 22.5558 13.4516 22.7686 14.0196 22.9332C14.5876 23.0979 15.1404 23.1641 15.6781 23.1322H16.9846C17.2494 23.1079 17.4502 23.0196 17.5866 22.8672L17.6318 22.8068C17.6622 22.7588 17.6907 22.6844 17.7169 22.5841C17.7435 22.4838 17.7567 22.3732 17.7567 22.2529C17.749 21.9075 17.7737 21.5963 17.8305 21.3193C17.8871 21.0424 17.9515 20.8336 18.0238 20.6929C18.0959 20.5524 18.1772 20.4339 18.2679 20.3377C18.3587 20.2414 18.4234 20.1831 18.4613 20.163C18.4991 20.1428 18.5292 20.1291 18.5519 20.1208C18.7336 20.0566 18.9475 20.1188 19.1939 20.3077C19.4401 20.4964 19.671 20.7295 19.8869 21.0064C20.1028 21.2836 20.3621 21.5947 20.6649 21.9399C20.9681 22.2854 21.2331 22.5421 21.4601 22.711L21.6872 22.8556C21.8389 22.9519 22.0359 23.0403 22.2783 23.1206C22.5202 23.2009 22.7322 23.221 22.9141 23.1809L25.8221 23.1328C26.1098 23.1328 26.3335 23.0822 26.4923 22.982C26.6514 22.8816 26.7459 22.771 26.7763 22.6508C26.8068 22.5304 26.8084 22.3938 26.7821 22.2409C26.7552 22.0886 26.7287 21.982 26.7023 21.9219Z" fill="#455C81"/>
</svg>
