<svg width="33" height="33" viewBox="0 0 33 33" fill="none" xmlns="http://www.w3.org/2000/svg">
<rect width="33" height="32.7925" rx="16.3962" fill="white"/>
<path d="M25.0122 12.7939C24.815 12.0653 24.2369 11.491 23.5038 11.2948C22.1645 10.9307 16.8072 10.9307 16.8072 10.9307C16.8072 10.9307 11.4502 10.9307 10.1109 11.281C9.39186 11.477 8.79967 12.0654 8.60245 12.7939C8.25 14.1247 8.25 16.8845 8.25 16.8845C8.25 16.8845 8.25 19.6583 8.60245 20.9751C8.79988 21.7036 9.37776 22.278 10.111 22.4742C11.4643 22.8384 16.8075 22.8384 16.8075 22.8384C16.8075 22.8384 22.1645 22.8384 23.5038 22.4881C24.237 22.292 24.815 21.7177 25.0124 20.9892C25.3648 19.6583 25.3648 16.8986 25.3648 16.8986C25.3648 16.8986 25.3789 14.1247 25.0122 12.7939ZM15.1016 19.4342V14.3349L19.5564 16.8845L15.1016 19.4342Z" fill="#DD2B22"/>
</svg>
