<svg width="22" height="18" viewBox="0 0 22 18" fill="none" xmlns="http://www.w3.org/2000/svg">
<path d="M21.2749 9.54375L18.2749 2.04375H18.2655L18.2374 1.97812C18.2374 1.97564 18.2364 1.97325 18.2346 1.9715C18.2329 1.96974 18.2305 1.96875 18.228 1.96875C18.2189 1.94798 18.2062 1.92895 18.1905 1.9125H18.1811L18.1343 1.85625C18.1318 1.85625 18.1294 1.85526 18.1276 1.8535C18.1259 1.85175 18.1249 1.84936 18.1249 1.84688L18.078 1.80937H18.0593L18.003 1.77188C17.9936 1.77188 17.9843 1.77187 17.9843 1.7625L17.928 1.74375H17.9093L17.8436 1.725H17.628L11.5624 3.04688V0.75C11.5624 0.600816 11.5031 0.457742 11.3976 0.352252C11.2922 0.246763 11.1491 0.1875 10.9999 0.1875C10.8507 0.1875 10.7076 0.246763 10.6021 0.352252C10.4967 0.457742 10.4374 0.600816 10.4374 0.75V3.3L4.12802 4.69687H4.08114L4.00614 4.725H3.99677L3.94052 4.7625H3.93114L3.87489 4.8H3.86552L3.81864 4.85625H3.80927L3.77177 4.9125H3.76239C3.75197 4.9355 3.73942 4.95747 3.72489 4.97812L0.724891 12.4781C0.687596 12.5636 0.674619 12.6577 0.687391 12.75C0.687391 14.8031 2.87177 15.5625 4.24989 15.5625C5.62802 15.5625 7.81239 14.8031 7.81239 12.75C7.81442 12.6794 7.80165 12.6091 7.77489 12.5438L5.01864 5.65313L10.4374 4.45312V16.6875H8.74989C8.60071 16.6875 8.45763 16.7468 8.35214 16.8523C8.24666 16.9577 8.18739 17.1008 8.18739 17.25C8.18739 17.3992 8.24666 17.5423 8.35214 17.6477C8.45763 17.7532 8.60071 17.8125 8.74989 17.8125H13.2499C13.3991 17.8125 13.5422 17.7532 13.6476 17.6477C13.7531 17.5423 13.8124 17.3992 13.8124 17.25C13.8124 17.1008 13.7531 16.9577 13.6476 16.8523C13.5422 16.7468 13.3991 16.6875 13.2499 16.6875H11.5624V4.2L16.8311 3.02813L14.2249 9.54375C14.1981 9.60913 14.1854 9.67939 14.1874 9.75C14.1874 11.8031 16.3718 12.5625 17.7499 12.5625C19.128 12.5625 21.3124 11.8031 21.3124 9.75C21.3144 9.67939 21.3016 9.60913 21.2749 9.54375ZM4.24989 14.4375C3.67554 14.4333 3.11143 14.285 2.60927 14.0062C2.11239 13.7156 1.84989 13.3406 1.81239 12.8531L4.24989 6.76875L6.68739 12.8531C6.60302 14.1469 4.86864 14.4375 4.24989 14.4375ZM17.7499 11.4375C17.1755 11.4333 16.6114 11.285 16.1093 11.0062C15.6124 10.7156 15.3499 10.3406 15.3124 9.85313L17.7499 3.76875L20.1874 9.85313C20.103 11.1469 18.3686 11.4375 17.7499 11.4375Z" fill="white"/>
</svg>
