<svg width="20" height="20" viewBox="0 0 20 20" fill="none" xmlns="http://www.w3.org/2000/svg">
<path d="M16.9918 14.0474C16.9584 13.841 16.829 13.6646 16.6352 13.5598L13.7682 11.8706L13.7446 11.8574C13.6244 11.7972 13.4916 11.7663 13.3572 11.7674C13.117 11.7674 12.8876 11.8584 12.7284 12.018L11.8822 12.8646C11.846 12.899 11.728 12.9488 11.6922 12.9506C11.6824 12.9498 10.7076 12.8796 8.91299 11.0848C7.12159 9.29375 7.04559 8.31595 7.04499 8.31595C7.04599 8.26595 7.09519 8.14835 7.13019 8.11195L7.85179 7.39055C8.10599 7.13575 8.18219 6.71335 8.03139 6.38615L6.43779 3.38755C6.32199 3.14915 6.09699 3.00195 5.84739 3.00195C5.67079 3.00195 5.50039 3.07515 5.36719 3.20815L3.40019 5.17075C3.21159 5.35835 3.04919 5.68635 3.01379 5.95035C2.99659 6.07655 2.64759 9.08895 6.77759 13.2196C10.2838 16.7254 13.0178 16.9978 13.7728 16.9978C13.8647 16.9989 13.9567 16.9942 14.048 16.9836C14.3112 16.9484 14.6388 16.7864 14.8262 16.5985L16.7916 14.6334C16.952 14.4722 17.0252 14.2592 16.9918 14.0474Z" fill="#E610E3"/>
</svg>
