<svg width="21" height="19" viewBox="0 0 21 19" fill="none" xmlns="http://www.w3.org/2000/svg">
<path d="M19.0066 2.58938C18.518 2.08488 17.9377 1.68468 17.2991 1.41163C16.6605 1.13858 15.976 0.998047 15.2847 0.998047C14.5934 0.998047 13.9089 1.13858 13.2703 1.41163C12.6317 1.68468 12.0515 2.08488 11.5628 2.58938L10.5486 3.6359L9.53437 2.58938C8.54725 1.5708 7.20843 0.998575 5.81244 0.998575C4.41644 0.998575 3.07762 1.5708 2.0905 2.58938C1.10339 3.60795 0.548828 4.98943 0.548828 6.42991C0.548828 7.8704 1.10339 9.25188 2.0905 10.2705L3.10471 11.317L10.5486 18.998L17.9924 11.317L19.0066 10.2705C19.4956 9.76619 19.8834 9.16747 20.148 8.5085C20.4126 7.84953 20.5488 7.14322 20.5488 6.42991C20.5488 5.71661 20.4126 5.0103 20.148 4.35133C19.8834 3.69236 19.4956 3.09364 19.0066 2.58938Z" fill="#E610E3"/>
</svg>
