<svg width="24" height="24" viewBox="0 0 24 24" fill="none" xmlns="http://www.w3.org/2000/svg">
<path d="M20.0066 4.5895C19.518 4.085 18.9377 3.6848 18.2991 3.41175C17.6605 3.13871 16.976 2.99817 16.2847 2.99817C15.5934 2.99817 14.9089 3.13871 14.2703 3.41175C13.6317 3.6848 13.0515 4.085 12.5628 4.5895L11.5486 5.63602L10.5344 4.5895C9.54725 3.57093 8.20843 2.9987 6.81244 2.9987C5.41644 2.9987 4.07762 3.57093 3.0905 4.5895C2.10339 5.60807 1.54883 6.98956 1.54883 8.43004C1.54883 9.87052 2.10339 11.252 3.0905 12.2706L4.10471 13.3171L11.5486 20.9982L18.9924 13.3171L20.0066 12.2706C20.4956 11.7663 20.8834 11.1676 21.148 10.5086C21.4126 9.84965 21.5488 9.14334 21.5488 8.43004C21.5488 7.71674 21.4126 7.01042 21.148 6.35145C20.8834 5.69248 20.4956 5.09376 20.0066 4.5895V4.5895Z" stroke="#E610E3" stroke-linecap="round" stroke-linejoin="round"/>
</svg>
