<svg width="35" height="35" viewBox="0 0 35 35" fill="none" xmlns="http://www.w3.org/2000/svg">
<rect width="35" height="35" rx="17.5" fill="#393B41"/>
<path fill-rule="evenodd" clip-rule="evenodd" d="M12.3958 4.66669C11.5835 4.66669 10.8046 4.98934 10.2302 5.56367C9.65591 6.138 9.33325 6.91696 9.33325 7.72919V26.1042C9.33325 26.9164 9.65591 27.6954 10.2302 28.2697C10.8046 28.844 11.5835 29.1667 12.3958 29.1667H21.5833C22.3955 29.1667 23.1744 28.844 23.7488 28.2697C24.3231 27.6954 24.6458 26.9164 24.6458 26.1042V7.72919C24.6458 6.91696 24.3231 6.138 23.7488 5.56367C23.1744 4.98934 22.3955 4.66669 21.5833 4.66669H12.3958ZM13.1395 5.83335C12.4588 5.83335 11.8059 6.06382 11.3246 6.47406C10.8433 6.88429 10.5728 7.44069 10.5728 8.02085V21.1459C10.5728 21.726 10.8433 22.2824 11.3246 22.6926C11.8059 23.1029 12.4588 23.3334 13.1395 23.3334H20.8395C21.5202 23.3334 22.1731 23.1029 22.6544 22.6926C23.1358 22.2824 23.4062 21.726 23.4062 21.1459V8.02085C23.4062 7.44069 23.1358 6.88429 22.6544 6.47406C22.1731 6.06382 21.5202 5.83335 20.8395 5.83335H13.1395ZM18.0723 27.114C17.7851 27.4012 17.3956 27.5625 16.9895 27.5625C16.5834 27.5625 16.1939 27.4012 15.9067 27.114C15.6196 26.8269 15.4583 26.4374 15.4583 26.0313C15.4583 25.6252 15.6196 25.2357 15.9067 24.9485C16.1939 24.6613 16.5834 24.5 16.9895 24.5C17.3956 24.5 17.7851 24.6613 18.0723 24.9485C18.3594 25.2357 18.5208 25.6252 18.5208 26.0313C18.5208 26.4374 18.3594 26.8269 18.0723 27.114Z" fill="#BCC2CB"/>
</svg>
