<svg width="35" height="35" viewBox="0 0 35 35" fill="none" xmlns="http://www.w3.org/2000/svg">
<rect width="35" height="35" rx="17.5" fill="#393B41"/>
<path fill-rule="evenodd" clip-rule="evenodd" d="M14.8694 5.69123C10.4024 6.36497 8.21158 8.19724 7.29558 12.025C6.89599 13.6953 6.90338 20.0851 7.30666 21.4836C8.07536 24.15 9.41543 25.6949 11.7711 26.6306L12.2085 26.8044L12.0982 29.0825C11.9823 31.4738 12.0506 32.2 12.3917 32.2C12.5048 32.2 13.4453 31.1426 14.4816 29.8501L16.3654 27.5002L18.8521 27.406C21.4553 27.3073 23.6527 26.9205 25.1321 26.3008C28.3916 24.9351 29.5856 21.8596 29.377 15.3659C29.2856 12.5209 28.9896 11.081 28.153 9.41285C27.5605 8.23127 26.8962 7.60366 25.4829 6.89032C23.7587 6.01992 21.9661 5.68518 18.6449 5.61303C17.0787 5.579 15.3797 5.61417 14.8694 5.69123ZM19.8591 8.97749C21.6726 9.42185 23.5816 10.9779 24.3878 12.6692C24.8966 13.7364 25.2637 15.2634 25.2637 16.3126C25.2637 17.0155 25.2186 17.148 24.9798 17.148C24.7426 17.148 24.6678 16.9373 24.5254 15.8661C24.271 13.9542 23.8309 12.8714 22.8507 11.7461C21.8053 10.5458 20.5174 9.83317 18.934 9.57875C17.853 9.405 17.4954 9.22372 17.6636 8.93446C17.7691 8.75318 19.0462 8.77821 19.8591 8.97749ZM14.2334 10.3173C16.0584 12.6904 16.2552 13.4879 15.2586 14.4681C14.9028 14.818 14.6429 15.2241 14.6429 15.4302C14.6429 16.0724 15.5912 17.8217 16.4128 18.6951C17.289 19.6262 18.6106 20.4202 19.2846 20.4202C19.5832 20.4202 19.8797 20.2253 20.2796 19.7657C20.9907 18.9488 21.471 18.9189 22.5529 19.6237C23.9588 20.5394 24.8019 21.3837 24.8019 21.8758C24.8019 22.4998 24.0217 23.7352 23.3481 24.1776C22.5803 24.682 21.799 24.5721 20.1611 23.7293C16.0764 21.6279 13.6391 19.0601 11.6136 14.7239C10.7095 12.7884 10.6019 11.9064 11.1716 11.0977C11.6983 10.3497 12.7334 9.62195 13.2705 9.62195C13.5879 9.62195 13.8372 9.80208 14.2334 10.3173ZM20.383 11.0957C22.1487 11.798 23.2985 13.481 23.3254 15.4028C23.3365 16.1959 23.2904 16.4117 23.1093 16.4117C22.9577 16.4117 22.8366 16.1606 22.7541 15.6755C22.5027 14.1973 22.3282 13.7451 21.7297 13.0224C21.0835 12.2422 20.0615 11.673 18.9754 11.4882C18.4905 11.4059 18.3371 11.3061 18.3371 11.0735C18.3371 10.6509 19.2906 10.6614 20.383 11.0957ZM20.5727 13.1271C21.1657 13.5402 21.4748 14.1752 21.484 15.0001C21.4954 16.0232 21.1345 16.0178 20.8526 14.9905C20.6273 14.1693 20.0516 13.5502 19.5092 13.5461C19.0203 13.5424 18.7393 13.295 18.8561 12.9714C18.9377 12.7454 19.0834 12.7061 19.5771 12.7765C19.9174 12.8249 20.3655 12.9828 20.5727 13.1271Z" fill="#9143B1"/>
</svg>
