<svg width="35" height="35" viewBox="0 0 35 35" fill="none" xmlns="http://www.w3.org/2000/svg">
<rect width="35" height="35" rx="17.5" fill="#393B41"/>
<path fill-rule="evenodd" clip-rule="evenodd" d="M17.0304 5.6001H17.036C23.2114 5.6001 28.2332 10.6247 28.2332 16.8001C28.2332 22.9755 23.2114 28.0001 17.036 28.0001C14.7582 28.0001 12.6457 27.3225 10.8747 26.1493L6.56965 27.5255L7.96545 23.3647C6.62285 21.5209 5.83325 19.2501 5.83325 16.8001C5.83325 10.6233 10.8551 5.6001 17.0304 5.6001ZM23.0721 20.706C22.8251 21.4034 21.8451 21.9817 21.0633 22.1506C20.5285 22.2644 19.8299 22.3553 17.4782 21.3803C14.6952 20.2273 12.8288 17.5246 12.4456 16.9696C12.4147 16.9248 12.3934 16.894 12.3821 16.8791C12.3782 16.8738 12.3737 16.8676 12.3685 16.8606C12.1808 16.6046 11.1666 15.2212 11.1666 13.7918C11.1666 12.3651 11.8703 11.6494 12.1862 11.3281C12.1956 11.3186 12.2046 11.3095 12.2132 11.3006C12.4601 11.0486 12.8683 10.9334 13.2598 10.9334C13.3751 10.9334 13.4797 10.9387 13.5748 10.9435C13.5842 10.944 13.5935 10.9445 13.6027 10.9449C13.9034 10.9577 14.0544 10.9757 14.2527 11.4503C14.3267 11.6286 14.4325 11.8854 14.5464 12.1617C14.8125 12.8073 15.1224 13.5594 15.1726 13.6651C15.2455 13.8161 15.3185 14.0208 15.2161 14.2191C15.1261 14.4111 15.0462 14.5029 14.9121 14.6572C14.9032 14.6674 14.8941 14.6779 14.8847 14.6887C14.8216 14.7615 14.7597 14.8271 14.6981 14.8925C14.6125 14.9834 14.5273 15.0739 14.4395 15.1826C14.437 15.1855 14.4344 15.1885 14.4319 15.1914C14.2957 15.3514 14.1484 15.5245 14.3192 15.8197C14.4932 16.114 15.0946 17.0954 15.98 17.8835C17.0297 18.8181 17.8969 19.1683 18.2879 19.3262C18.3225 19.3402 18.3533 19.3526 18.3802 19.3639C18.6272 19.4662 18.9215 19.4419 19.1019 19.25C19.2999 19.0365 19.5381 18.7014 19.7851 18.3541C19.8238 18.2997 19.8626 18.2451 19.9015 18.1906C20.1063 17.9014 20.3647 17.8656 20.636 17.968C20.9123 18.0639 22.3748 18.7868 22.6754 18.9365C22.7375 18.9677 22.7953 18.9955 22.8484 19.0211C23.0527 19.1195 23.1895 19.1853 23.2474 19.2858C23.319 19.4125 23.319 20.0074 23.0721 20.706Z" fill="#82C448"/>
</svg>
