<svg width="40" height="40" viewBox="0 0 40 40" fill="none" xmlns="http://www.w3.org/2000/svg">
<path d="M2.5 33.748H37.5" stroke="#2B2C31" stroke-linecap="round" stroke-linejoin="round"/>
<path d="M34.9991 33.748V16.248C34.9991 15.9165 34.8675 15.5986 34.633 15.3642C34.3986 15.1297 34.0807 14.998 33.7491 14.998H22.4991M22.4991 33.748V6.24805C22.4991 5.91653 22.3675 5.59858 22.133 5.36416C21.8986 5.12974 21.5807 4.99805 21.2491 4.99805H6.24915C5.91762 4.99805 5.59968 5.12974 5.36526 5.36416C5.13084 5.59858 4.99915 5.91653 4.99915 6.24805V33.748H22.4991Z" stroke="#2B2C31" stroke-linecap="round" stroke-linejoin="round"/>
<path d="M9.99902 11.248H14.999" stroke="#2B2C31" stroke-linecap="round" stroke-linejoin="round"/>
<path d="M12.499 21.248H17.499" stroke="#2B2C31" stroke-linecap="round" stroke-linejoin="round"/>
<path d="M9.99902 27.498H14.999" stroke="#2B2C31" stroke-linecap="round" stroke-linejoin="round"/>
<path d="M27.499 27.498H29.999" stroke="#2B2C31" stroke-linecap="round" stroke-linejoin="round"/>
<path d="M27.499 21.248H29.999" stroke="#2B2C31" stroke-linecap="round" stroke-linejoin="round"/>
</svg>
