<svg width="26" height="22" viewBox="0 0 26 22" fill="none" xmlns="http://www.w3.org/2000/svg">
<path d="M25 12.4277V16.7134C25 18.5706 20.5229 20.9992 15 20.9992C9.47714 20.9992 5 18.5706 5 16.7134V13.142" stroke="#2B2C31" stroke-linecap="round" stroke-linejoin="round"/>
<path d="M5.42004 13.5125C6.65576 15.1525 10.4772 16.691 15 16.691C20.5229 16.691 25 14.3968 25 12.4253C25 11.3182 23.59 10.1053 21.3772 9.25391" stroke="#2B2C31" stroke-linecap="round" stroke-linejoin="round"/>
<path d="M20.7144 5.28516V9.57087C20.7144 11.428 16.2372 13.8566 10.7144 13.8566C5.1915 13.8566 0.714355 11.428 0.714355 9.57087V5.28516" stroke="#2B2C31" stroke-linecap="round" stroke-linejoin="round"/>
<path fill-rule="evenodd" clip-rule="evenodd" d="M10.7144 9.54857C16.2372 9.54857 20.7144 7.25429 20.7144 5.28286C20.7144 3.31 16.2372 1 10.7144 1C5.1915 1 0.714355 3.31 0.714355 5.28286C0.714355 7.25429 5.1915 9.54857 10.7144 9.54857Z" stroke="#2B2C31" stroke-linecap="round" stroke-linejoin="round"/>
</svg>
