<svg width="26" height="26" viewBox="0 0 26 26" fill="none" xmlns="http://www.w3.org/2000/svg">
<path d="M7.84271 25.3536L7.48917 25.7071L7.84271 25.3536L4.24457 21.7558L0.646463 18.158C0.552685 18.0642 0.5 17.9371 0.5 17.8044V13.0004V8.19624C0.5 8.06364 0.552672 7.93647 0.64643 7.84271L0.297059 7.49337L0.64643 7.84271L4.24423 4.24457L7.842 0.646463C7.93576 0.552685 8.06295 0.5 8.19557 0.5H12.9996H17.8038C17.9364 0.5 18.0635 0.552672 18.1573 0.646429L18.5108 0.29286L18.1573 0.64643L21.7554 4.24423L25.3535 7.842C25.4473 7.93576 25.5 8.06295 25.5 8.19557V12.9996V17.8038C25.5 17.9364 25.4473 18.0635 25.3536 18.1573L21.7558 21.7554L18.158 25.3535C18.0642 25.4473 17.9371 25.5 17.8044 25.5H13.0004H8.19624C8.06364 25.5 7.93647 25.4473 7.84271 25.3536Z" stroke="#2B2C31"/>
</svg>
