<svg width="40" height="40" viewBox="0 0 40 40" fill="none" xmlns="http://www.w3.org/2000/svg">
<rect width="40" height="40" fill="white"/>
<rect x="8.5" y="9.5" width="22" height="22" rx="1.5" stroke="#2B2C31"/>
<path d="M11.3691 20.3779C11.2715 20.4755 11.2715 20.6338 11.3691 20.7315C11.4668 20.8291 11.625 20.8291 11.7227 20.7315L11.3691 20.3779ZM19.7227 12.7315C19.8203 12.6338 19.8203 12.4755 19.7227 12.3779C19.625 12.2803 19.4668 12.2803 19.3691 12.3779L19.7227 12.7315ZM11.7227 20.7315L19.7227 12.7315L19.3691 12.3779L11.3691 20.3779L11.7227 20.7315Z" fill="#2B2C31"/>
<path d="M11.1754 16.8232C11.0778 16.9209 11.0778 17.0791 11.1754 17.1768C11.273 17.2744 11.4313 17.2744 11.5289 17.1768L11.1754 16.8232ZM16.5289 12.1768C16.6266 12.0791 16.6266 11.9209 16.5289 11.8232C16.4313 11.7256 16.273 11.7256 16.1754 11.8232L16.5289 12.1768ZM11.5289 17.1768L16.5289 12.1768L16.1754 11.8232L11.1754 16.8232L11.5289 17.1768Z" fill="#2B2C31"/>
</svg>
