<svg width="40" height="40" viewBox="0 0 40 40" fill="none" xmlns="http://www.w3.org/2000/svg">
<rect width="40" height="40" fill="white"/>
<path d="M8.62452 12.8494C8.69021 12.6414 8.88317 12.5 9.10131 12.5H35.6355C35.9735 12.5 36.2141 12.8283 36.1123 13.1506L31.3755 28.1506C31.3098 28.3586 31.1168 28.5 30.8987 28.5H4.36446C4.02652 28.5 3.78591 28.1717 3.88767 27.8494L8.62452 12.8494Z" stroke="#2B2C31"/>
<path d="M11.2271 15.0723C11.2671 14.9402 11.1923 14.8007 11.0602 14.7607C10.928 14.7207 10.7885 14.7955 10.7485 14.9277L11.2271 15.0723ZM7.88385 24.4036C7.84389 24.5358 7.91864 24.6753 8.05081 24.7153C8.18297 24.7552 8.3225 24.6805 8.36245 24.5483L7.88385 24.4036ZM10.7485 14.9277L7.88385 24.4036L8.36245 24.5483L11.2271 15.0723L10.7485 14.9277Z" fill="#2B2C31"/>
<path d="M12.5544 18.1231C12.5944 17.991 12.5196 17.8514 12.3874 17.8115C12.2553 17.7715 12.1157 17.8463 12.0758 17.9784L12.5544 18.1231ZM9.76078 25.6362C9.72083 25.7683 9.79558 25.9079 9.92774 25.9478C10.0599 25.9878 10.1994 25.913 10.2394 25.7808L9.76078 25.6362ZM12.0758 17.9784L9.76078 25.6362L10.2394 25.7808L12.5544 18.1231L12.0758 17.9784Z" fill="#2B2C31"/>
</svg>
