<svg width="40" height="40" viewBox="0 0 40 40" fill="none" xmlns="http://www.w3.org/2000/svg">
<rect width="40" height="40" fill="white"/>
<rect x="7.5" y="8.5" width="25" height="25" rx="12.5" stroke="#2B2C31"/>
<path d="M19.629 11.6842C19.7658 11.6657 19.8617 11.5398 19.8433 11.4029C19.8248 11.2661 19.6988 11.1702 19.562 11.1887L19.629 11.6842ZM11.1835 16.9649C11.1175 17.0862 11.1623 17.238 11.2835 17.304C11.4048 17.37 11.5566 17.3253 11.6226 17.204L11.1835 16.9649ZM19.562 11.1887C15.8691 11.6877 12.8383 13.9259 11.1835 16.9649L11.6226 17.204C13.2045 14.2988 16.1005 12.161 19.629 11.6842L19.562 11.1887Z" fill="#2B2C31"/>
<path d="M18.7648 13.7346C18.8954 13.6898 18.9649 13.5476 18.92 13.417C18.8752 13.2864 18.733 13.2169 18.6024 13.2617L18.7648 13.7346ZM13.9457 16.3301C13.8528 16.4323 13.8604 16.5904 13.9626 16.6832C14.0648 16.7761 14.2229 16.7685 14.3157 16.6663L13.9457 16.3301ZM18.6024 13.2617C16.781 13.8872 15.1921 14.9583 13.9457 16.3301L14.3157 16.6663C15.5071 15.3552 17.0252 14.3321 18.7648 13.7346L18.6024 13.2617Z" fill="#2B2C31"/>
</svg>
