<svg width="26" height="26" viewBox="0 0 26 26" fill="none" xmlns="http://www.w3.org/2000/svg">
<path fill-rule="evenodd" clip-rule="evenodd" d="M2 0H24C25.1046 0 26 0.89543 26 2V24C26 25.1046 25.1046 26 24 26H2C0.895432 26 0 25.1046 0 24V2C0 0.895432 0.89543 0 2 0ZM2 1C1.44772 1 1 1.44772 1 2V24C1 24.5523 1.44772 25 2 25H24C24.5523 25 25 24.5523 25 24V2C25 1.44772 24.5523 1 24 1H2Z" fill="#2B2C31"/>
<path fill-rule="evenodd" clip-rule="evenodd" d="M13 3C13.2761 3 13.5 3.22386 13.5 3.5L13.5 22.5C13.5 22.7761 13.2761 23 13 23C12.7239 23 12.5 22.7761 12.5 22.5L12.5 3.5C12.5 3.22386 12.7239 3 13 3Z" fill="#2B2C31"/>
</svg>
