<svg width="26" height="26" viewBox="0 0 26 26" fill="none" xmlns="http://www.w3.org/2000/svg">
<path fill-rule="evenodd" clip-rule="evenodd" d="M2 0H24C25.1046 0 26 0.89543 26 2V24C26 25.1046 25.1046 26 24 26H2C0.895432 26 0 25.1046 0 24V2C0 0.895432 0.89543 0 2 0ZM2 1C1.44772 1 1 1.44772 1 2V24C1 24.5523 1.44772 25 2 25H24C24.5523 25 25 24.5523 25 24V2C25 1.44772 24.5523 1 24 1H2Z" fill="#2B2C31"/>
<path fill-rule="evenodd" clip-rule="evenodd" d="M9.5 3C9.77614 3 10 3.22386 10 3.5L10 22.5C10 22.7761 9.77614 23 9.5 23C9.22386 23 9 22.7761 9 22.5L9 3.5C9 3.22386 9.22386 3 9.5 3Z" fill="#2B2C31"/>
<path fill-rule="evenodd" clip-rule="evenodd" d="M23 16.5C23 16.7761 22.7761 17 22.5 17L3.5 17C3.22386 17 3 16.7761 3 16.5C3 16.2239 3.22386 16 3.5 16L22.5 16C22.7761 16 23 16.2239 23 16.5Z" fill="#2B2C31"/>
<path fill-rule="evenodd" clip-rule="evenodd" d="M23 9.5C23 9.77614 22.7761 10 22.5 10L3.5 10C3.22386 10 3 9.77614 3 9.5C3 9.22386 3.22386 9 3.5 9L22.5 9C22.7761 9 23 9.22386 23 9.5Z" fill="#2B2C31"/>
<path fill-rule="evenodd" clip-rule="evenodd" d="M16.5 3C16.7761 3 17 3.22386 17 3.5V22.5C17 22.7761 16.7761 23 16.5 23C16.2239 23 16 22.7761 16 22.5V3.5C16 3.22386 16.2239 3 16.5 3Z" fill="#2B2C31"/>
</svg>
