<svg width="33" height="33" viewBox="0 0 33 33" fill="none" xmlns="http://www.w3.org/2000/svg">
<rect width="33" height="32.7925" rx="16.3962" fill="white"/>
<path fill-rule="evenodd" clip-rule="evenodd" d="M9.47392 12.5498C9.54332 10.4122 11.2393 8.70376 13.3579 8.63524C14.5715 8.59599 15.8837 8.56445 16.967 8.56445C18.0503 8.56445 19.3626 8.59599 20.5762 8.63524C22.6948 8.70376 24.3908 10.4122 24.4602 12.5498C24.4988 13.7398 24.5295 15.0198 24.5295 16.0794C24.5295 17.139 24.4988 18.419 24.4602 19.609C24.3908 21.7466 22.6948 23.455 20.5762 23.5235C19.3626 23.5628 18.0503 23.5943 16.967 23.5943C15.8837 23.5943 14.5715 23.5628 13.3579 23.5235C11.2393 23.455 9.54332 21.7466 9.47392 19.609C9.43529 18.419 9.40454 17.139 9.40454 16.0794C9.40454 15.0198 9.43529 13.7398 9.47392 12.5498ZM19.4879 16.195C19.4879 17.5997 18.3593 18.7385 16.967 18.7385C15.5748 18.7385 14.4462 17.5997 14.4462 16.195C14.4462 14.7903 15.5748 13.6515 16.967 13.6515C18.3593 13.6515 19.4879 14.7903 19.4879 16.195ZM20.5191 12.9578C21.0887 12.9578 21.5504 12.4919 21.5504 11.9173C21.5504 11.3426 21.0887 10.8767 20.5191 10.8767C19.9496 10.8767 19.4879 11.3426 19.4879 11.9173C19.4879 12.4919 19.9496 12.9578 20.5191 12.9578Z" fill="#E610E3"/>
</svg>
