<svg width="28" height="25" viewBox="0 0 28 25" fill="none" xmlns="http://www.w3.org/2000/svg">
<path fill-rule="evenodd" clip-rule="evenodd" d="M6.98283 3.53916L6.95651 7.07831L4.87956 7.10542L2.80262 7.13263V15.2932C2.80262 21.5065 2.77399 23.4825 2.68251 23.5743C2.60163 23.6554 2.14421 23.6948 1.2812 23.6948H0V24.3474V25H13.7128H27.4256V24.3474V23.6948H26.1445C25.2814 23.6948 24.824 23.6554 24.7431 23.5743C24.6517 23.4825 24.623 21.5065 24.623 15.2932V7.13263L22.5461 7.10542L20.4691 7.07831L20.4428 3.53916L20.4165 0H13.7128H7.00916L6.98283 3.53916ZM18.9595 1.36616C19.1018 1.42088 19.1179 2.11958 19.1179 8.23293C19.1179 14.3463 19.1018 15.045 18.9595 15.0997C18.7527 15.1793 8.67291 15.1793 8.46612 15.0997C8.32388 15.045 8.30777 14.3461 8.30777 8.23052C8.30777 2.87791 8.33449 1.41155 8.43289 1.37169C8.61326 1.29869 18.7705 1.29337 18.9595 1.36616ZM10.2095 4.11647V4.81928H10.8602H11.5108V4.11647V3.41365H10.8602H10.2095V4.11647ZM13.0831 3.47631C13.0441 3.51546 13.0122 3.83363 13.0122 4.18343V4.81928H13.7174H14.4226L14.3931 4.14157L14.3634 3.46386L13.7588 3.43454C13.4262 3.41837 13.1222 3.43715 13.0831 3.47631ZM15.9149 4.11647V4.81928H16.5655H17.2161V4.11647V3.41365H16.5655H15.9149V4.11647ZM10.2095 6.92771V7.63052H10.8602H11.5108V6.92771V6.2249H10.8602H10.2095V6.92771ZM13.0831 6.28755C13.0441 6.32671 13.0122 6.64488 13.0122 6.99468V7.63052H13.7174H14.4226L14.3931 6.95281L14.3634 6.2751L13.7588 6.24578C13.4262 6.22962 13.1222 6.24839 13.0831 6.28755ZM15.9149 6.92771V7.63052H16.5655H17.2161V6.92771V6.2249H16.5655H15.9149V6.92771ZM6.98213 16.0579C7.00245 21.9704 6.98153 23.5483 6.88204 23.6116C6.7356 23.7049 4.4962 23.7239 4.26219 23.6338C4.11975 23.579 4.10384 22.8235 4.10384 16.1205C4.10384 12.0216 4.13507 8.63665 4.1733 8.59839C4.21144 8.56004 4.85334 8.54127 5.59964 8.55653L6.95651 8.58434L6.98213 16.0579ZM23.2974 16.0579C23.3177 21.9704 23.2968 23.5483 23.1973 23.6116C23.0509 23.7049 20.8115 23.7239 20.5774 23.6338C20.435 23.579 20.4191 22.8235 20.4191 16.1205C20.4191 12.0216 20.4503 8.63665 20.4886 8.59839C20.5267 8.56004 21.1686 8.54127 21.9149 8.55653L23.2718 8.58434L23.2974 16.0579ZM10.2095 9.73896V10.4418H10.8602H11.5108V9.73896V9.03615H10.8602H10.2095V9.73896ZM13.0122 9.73896V10.4418H13.7128H14.4135V9.73896V9.03615H13.7128H13.0122V9.73896ZM15.9149 9.73896V10.4418H16.5655H17.2161V9.73896V9.03615H16.5655H15.9149V9.73896ZM10.2095 12.5V13.1526H10.8602H11.5108V12.5V11.8474H10.8602H10.2095V12.5ZM13.0122 12.5V13.1526H13.7128H14.4135V12.5V11.8474H13.7128H13.0122V12.5ZM15.9149 12.5V13.1526H16.5655H17.2161V12.5V11.8474H16.5655H15.9149V12.5ZM19.0678 20.0803V23.6446L17.5299 23.6724C16.4808 23.6913 15.9478 23.6635 15.8533 23.5847C15.7417 23.492 15.7147 22.9619 15.7147 20.8713V18.2731H13.7128H11.711V20.8635C11.711 22.7443 11.678 23.4868 11.5908 23.5743C11.4643 23.7012 8.77431 23.7525 8.46612 23.6338C8.32589 23.5799 8.30777 23.173 8.30777 20.0863C8.30777 18.1687 8.3382 16.5692 8.37533 16.5319C8.41257 16.4947 10.8335 16.4758 13.7554 16.4901L19.0678 16.5161V20.0803ZM14.2906 19.562C14.3881 19.6241 14.4115 20.1102 14.3907 21.6438L14.3634 23.6446H13.7128H13.0622L13.035 21.6438C13.0142 20.1102 13.0376 19.6241 13.1351 19.562C13.2051 19.5175 13.4651 19.481 13.7128 19.481C13.9606 19.481 14.2205 19.5175 14.2906 19.562Z" fill="#2B2C31"/>
</svg>
