<svg width="28" height="25" viewBox="0 0 28 25" fill="none" xmlns="http://www.w3.org/2000/svg">
<path fill-rule="evenodd" clip-rule="evenodd" d="M8.02766 0.141546C6.16791 0.643255 4.65146 2.26185 4.36169 4.05466C4.29608 4.46048 4.25708 7.17273 4.25669 11.3642L4.2559 18.0285L2.30133 18.0746C1.22637 18.1001 0.268784 18.1548 0.173579 18.1961C0.0344337 18.2567 0.000389667 18.3967 0.000389667 18.9089V19.5463L0.668405 19.4691C1.03586 19.4266 2.00444 19.3992 2.8209 19.4082C4.40999 19.4258 4.48025 19.4393 7.28997 20.268C8.92161 20.7493 9.92591 20.8696 11.7278 20.7999C13.3203 20.7382 13.7145 20.6626 15.9412 19.991C17.6972 19.4615 19.0031 19.2899 20.5852 19.3806C21.8366 19.4523 22.5573 19.5952 23.9005 20.0374C24.9477 20.3823 26.244 20.6887 27.0427 20.7803L27.6117 20.8456V20.1435V19.4415L27.1911 19.44C26.6636 19.4382 25.8485 19.2482 24.1601 18.7338C22.3926 18.1952 21.4322 18.0525 19.5708 18.0521L18.0121 18.0517L18.0166 12.5174C18.0191 9.47351 18.0573 6.28665 18.1014 5.43531C18.1785 3.94795 18.1944 3.86367 18.5075 3.2744C18.9106 2.51588 19.4251 2.03998 20.2761 1.63873C20.8411 1.37219 21.0408 1.3299 21.7233 1.33179C22.7563 1.33467 23.4582 1.60736 24.2127 2.29918C24.7568 2.79781 25.3352 3.76638 25.3354 4.17875C25.3355 4.32766 25.4345 4.35247 26.0283 4.35247C26.4093 4.35247 26.721 4.31247 26.721 4.26363C26.721 4.21479 26.6326 3.88769 26.5246 3.53677C26.0061 1.85296 24.543 0.48224 22.8891 0.130626C20.3254 -0.414266 17.984 0.862245 17.0092 3.33635C16.7971 3.87459 16.7818 4.08246 16.7305 7.13203L16.676 10.3583H11.134H5.59193L5.56511 7.92619C5.55046 6.58852 5.57758 5.13561 5.62548 4.69743C5.84716 2.66796 7.27295 1.34787 9.25364 1.33795C10.2752 1.33288 10.9843 1.60349 11.7223 2.28012C12.2526 2.76614 12.8659 3.77969 12.8659 4.16982C12.8659 4.32974 12.9519 4.35247 13.5586 4.35247C13.9396 4.35247 14.2514 4.33242 14.2514 4.308C14.2514 4.28348 14.1394 3.90774 14.0025 3.47304C13.6129 2.23604 12.6333 1.06595 11.5082 0.493854C10.5565 0.00991386 9.07244 -0.140381 8.02766 0.141546ZM16.7036 13.1635L16.731 14.579L11.1615 14.5532L5.59193 14.5276L5.56412 13.2424C5.54878 12.5355 5.55868 11.8986 5.58599 11.8269C5.62647 11.7213 6.6754 11.7016 11.156 11.7225L16.676 11.7481L16.7036 13.1635ZM16.7255 17.1544V18.3418L15.3493 18.7863C13.5086 19.3809 12.9933 19.4639 11.134 19.4659C9.32262 19.4677 8.89895 19.399 6.9527 18.7871L5.54245 18.3438V17.1554V15.967H11.134H16.7255V17.1544ZM0.693147 22.2804C-0.0396913 22.4163 0.000389667 22.3722 0.000389667 23.0419V23.6605L2.4003 23.6625L4.80021 23.6647L5.93831 24.0374C8.60869 24.9119 8.72556 24.932 11.134 24.932C13.5323 24.932 13.5103 24.9358 16.3275 24.055C17.236 23.7709 17.7314 23.68 18.8016 23.601C20.8733 23.448 21.8606 23.5719 24.0513 24.2597C25.2334 24.6309 26.9349 24.9974 27.488 25C27.661 25.0008 27.661 23.7175 27.488 23.6694C27.42 23.6505 27.008 23.588 26.5726 23.5305C26.1371 23.473 25.2019 23.2413 24.4943 23.0156C22.6346 22.4224 22.0003 22.3054 20.3248 22.2472C18.5062 22.184 17.4314 22.3401 15.3903 22.9637C13.3211 23.5958 13.0036 23.6468 11.134 23.6468C9.26789 23.6468 8.8757 23.5848 7.02692 22.9979C5.13867 22.3984 4.5901 22.3066 2.67245 22.2687C1.71991 22.2498 0.829224 22.2551 0.693147 22.2804Z" fill="#2B2C31"/>
</svg>
